<?xml version="1.0" encoding="UTF-8"?>
<svg width="128" height="128" version="1.1" xmlns="http://www.w3.org/2000/svg">
 <defs>
  <linearGradient id="b" x1=".030726" x2=".96927">
   <stop stop-color="#3a080c" offset="0"/>
   <stop stop-color="#c01c28" offset=".15806"/>
   <stop stop-color="#c01c28" offset=".84194"/>
   <stop stop-color="#3a080c" offset="1"/>
  </linearGradient>
  <radialGradient id="a" cx=".096481" cy=".92291" r=".88047" gradientTransform="scale(1.5644,1)">
   <stop stop-color="#febe46" offset="0"/>
   <stop stop-color="#e01b24" offset="1"/>
  </radialGradient>
 </defs>
 <path d="m11.861 43.817v71.183h0.5003v-0.158c0-2.2326 1.0772-4.0293 2.4141-4.0293h10.447c1.3369 0 2.4121 1.7966 2.4121 4.0293l-5e-4 0.158h0.5v-71.183zm2.914 2.5h10.447c1.337 0 2.4121 1.7966 2.4121 4.0293v2.316c0 2.2326-1.0752 4.0312-2.4121 4.0312h-10.447c-1.3369 0-2.4138-1.7986-2.4141-4.0312l-3e-4 -2.316c-2.89e-4 -2.2326 1.0771-4.0293 2.414-4.0293zm4e-4 21.498h10.447c1.337 0 2.4121 1.7985 2.4121 4.0312v2.316c0 2.2326-1.0752 4.0293-2.4121 4.0293h-10.447c-1.3369 0-2.4141-1.7966-2.4141-4.0293v-2.316c0-2.2326 1.0772-4.0312 2.4141-4.0312zm0 21.5h10.447c1.337 0 2.4121 1.7966 2.4121 4.0293v2.316c0 2.2326-1.0752 4.0313-2.4121 4.0313h-10.447c-1.3369 0-2.4141-1.7986-2.4141-4.0313v-2.316c0-2.2326 1.0772-4.0293 2.4141-4.0293z" fill="url(#b)"/>
 <path d="m99.863 43.817v71.183h0.5003v-0.158c0-2.2326 1.0772-4.0293 2.4141-4.0293h10.447c1.3369 0 2.4121 1.7966 2.4121 4.0293l-5e-4 0.158h0.5v-71.183zm2.914 2.5h10.447c1.337 0 2.4121 1.7966 2.4121 4.0293v2.316c0 2.2326-1.0752 4.0312-2.4121 4.0312h-10.447c-1.3369 0-2.4138-1.7986-2.4141-4.0312l-3e-4 -2.316c-2.9e-4 -2.2326 1.0771-4.0293 2.414-4.0293zm4e-4 21.498h10.447c1.337 0 2.4121 1.7985 2.4121 4.0312v2.316c0 2.2326-1.0752 4.0293-2.4121 4.0293h-10.447c-1.3369 0-2.4141-1.7966-2.4141-4.0293v-2.316c0-2.2326 1.0772-4.0312 2.4141-4.0312zm0 21.5h10.447c1.337 0 2.4121 1.7966 2.4121 4.0293v2.316c0 2.2326-1.0752 4.0313-2.4121 4.0313h-10.447c-1.3369 0-2.4141-1.7986-2.4141-4.0313v-2.316c0-2.2326 1.0772-4.0293 2.4141-4.0293z" fill="url(#b)"/>
 <path d="m8.5 113.5-0.5 0.5v2h4.3613l-1.6e-4 -2-0.50014-0.5zm19.635 0-0.5 0.5-2.4e-4 2h72.73l-1.2e-4 -2-0.49964-0.5zm88.004 0-0.50016 0.5-1.6e-4 2h4.3613l2e-5 -2-0.5-0.5z" fill="#c01c28"/>
 <path d="m8 28v86h4.3613v-1.158c0-2.2326 1.0772-4.0293 2.4141-4.0293h10.447c1.3369 0 2.4121 1.7966 2.4121 4.0293v1.158h72.73v-1.158c0-2.2326 1.0752-4.0293 2.4121-4.0293h10.447c1.3369 0 2.4141 1.7966 2.4141 4.0293v1.158h4.3613v-86h-4.3613v1.1639c0 2.2327-1.0771 4.0293-2.4141 4.0293h-10.447c-1.3369 0-2.4121-1.7967-2.4121-4.0293v-1.1639h-72.73v1.1639c0 2.2326-1.0752 4.0293-2.4121 4.0293h-10.447c-1.337 0-2.4141-1.7966-2.4141-4.0293v-1.1639zm6.7754 16.317h10.447c1.337 0 2.4121 1.7966 2.4121 4.0293v2.316c0 2.2326-1.0752 4.0312-2.4121 4.0312h-10.447c-1.3369 0-2.4141-1.7986-2.4141-4.0312v-2.316c0-2.2326 1.0772-4.0293 2.4141-4.0293zm88 0h10.449c1.3369 0 2.4121 1.7966 2.4121 4.0293v2.316c0 2.2326-1.0752 4.0312-2.4121 4.0312h-10.449c-1.3369 0-2.4121-1.7986-2.4121-4.0312v-2.316c0-2.2326 1.0752-4.0293 2.4121-4.0293zm-88 21.498h10.447c1.337 0 2.4121 1.7985 2.4121 4.0312v2.316c0 2.2326-1.0752 4.0293-2.4121 4.0293h-10.447c-1.3369 0-2.4141-1.7966-2.4141-4.0293v-2.316c0-2.2326 1.0772-4.0312 2.4141-4.0312zm88 0h10.449c1.3369 0 2.4121 1.7985 2.4121 4.0312v2.316c0 2.2326-1.0752 4.0293-2.4121 4.0293h-10.449c-1.3369 0-2.4121-1.7966-2.4121-4.0293v-2.316c0-2.2326 1.0752-4.0312 2.4121-4.0312zm-88 21.5h10.447c1.337 0 2.4121 1.7966 2.4121 4.0293v2.316c0 2.2326-1.0752 4.0312-2.4121 4.0312h-10.447c-1.3369 0-2.4141-1.7986-2.4141-4.0312v-2.316c0-2.2326 1.0772-4.0293 2.4141-4.0293zm88 0h10.449c1.3369 0 2.4121 1.7966 2.4121 4.0293v2.316c0 2.2326-1.0752 4.0312-2.4121 4.0312h-10.449c-1.3369 0-2.4121-1.7986-2.4121-4.0312v-2.316c0-2.2326 1.0752-4.0293 2.4121-4.0293z" fill="url(#a)"/>
 <path d="m54.991 44.237c-10.08 3e-3 -18.25 8.1764-18.248 18.257-8e-4 1.2056 0.11805 2.4082 0.35416 3.5904-4.0739 2.4123-6.8268 6.8028-6.8268 11.899 0 7.6872 6.1886 13.876 13.876 13.876h39.709c7.6872 0 13.876-6.1885 13.876-13.876 0-6.675-4.6742-12.21-10.936-13.555 0.0127-0.24413 0.0169-0.4885 0.0169-0.73292-3e-3 -8.3382-6.7646-15.096-15.103-15.094-1.4236-2e-3 -2.8403 0.19774-4.208 0.59289-3.3862-3.185-7.8601-4.958-12.509-4.9574zm2.6038 9.2231h12.772c1.2437 1.7e-4 2.248 1.0493 2.2481 2.3387v13.209h6.695c2.0769 8.8e-4 3.0428 2.6718 1.4823 4.0927l-15.325 13.942c-0.85 0.77356-2.1229 0.77356-2.9728 0l-15.325-13.942c-1.5612-1.4213-0.58741-4.093 1.4905-4.0927h6.6867v-13.209c1.7e-4 -1.2892 1.0044-2.3386 2.2481-2.3387z" fill="#f6f5f4"/>
</svg>
