<?xml version="1.0" encoding="UTF-8"?>
<svg width="512" height="512" version="1.1" xmlns="http://www.w3.org/2000/svg">
 <path d="m22.263 98.45v315.1h24.166v-2.7226c0-5.4534 2.6607-9.8438 5.9668-9.8438h25.836c3.306 0 5.9688 4.3904 5.9688 9.8438v2.7226h343.6v-2.7226c0-5.4534 2.6628-9.8438 5.9688-9.8438h25.836c3.3061 0 5.9648 4.3904 5.9648 9.8438v2.7226h24.168v-315.1h-24.168v3.041c0 5.4534-2.6588 9.8418-5.9648 9.8418h-25.836c-3.3061 0-5.9688-4.3884-5.9688-9.8418v-3.041h-343.62v3.041c0 5.4534-2.6607 9.8418-5.9668 9.8418h-25.834c-3.3061 0-5.9688-4.3884-5.9688-9.8418v-3.041zm30.117 50.537h25.836c3.3061 0 5.9668 4.3904 5.9668 9.8438v5.6582c0 5.4534-2.6607 9.8438-5.9668 9.8438h-25.836c-3.3061 0-5.9688-4.3904-5.9688-9.8438v-5.6582c0-5.4534 2.6628-9.8438 5.9688-9.8438zm381.38 0h25.836c3.3061 0 5.9648 4.3904 5.9648 9.8438v5.6582c0 5.4534-2.6588 9.8438-5.9648 9.8438h-25.836c-3.3061 0-5.9688-4.3904-5.9688-9.8438v-5.6582c0-5.4534 2.6628-9.8438 5.9688-9.8438zm-381.38 63h25.836c3.3061 0 5.9668 4.3904 5.9668 9.8438v5.6582c0 5.4534-2.6607 9.8438-5.9668 9.8438h-25.836c-3.3061 0-5.9688-4.3904-5.9688-9.8438v-5.6582c0-5.4534 2.6628-9.8438 5.9688-9.8438zm381.38 0h25.836c3.3061 0 5.9648 4.3904 5.9648 9.8438v5.6582c0 5.4534-2.6588 9.8438-5.9648 9.8438h-25.836c-3.3061 0-5.9688-4.3904-5.9688-9.8438v-5.6582c0-5.4534 2.6628-9.8438 5.9688-9.8438zm-381.38 63h25.836c3.3061 0 5.9668 4.3904 5.9668 9.8438v5.6562c0 5.4533-2.6607 9.8438-5.9668 9.8438h-25.836c-3.3061 0-5.9688-4.3904-5.9688-9.8438v-5.6562c0-5.4534 2.6628-9.8438 5.9688-9.8438zm381.38 0h25.836c3.3061 0 5.9648 4.3904 5.9648 9.8438v5.6562c0 5.4533-2.6588 9.8438-5.9648 9.8438h-25.836c-3.3061 0-5.9688-4.3904-5.9688-9.8438v-5.6562c0-5.4534 2.6628-9.8438 5.9688-9.8438zm-381.38 62.998h25.836c3.3061 0 5.9668 4.3904 5.9668 9.8438v5.6582c0 5.4533-2.6607 9.8438-5.9668 9.8438h-25.836c-3.3061 0-5.9688-4.3904-5.9688-9.8438v-5.6582c0-5.4533 2.6628-9.8438 5.9688-9.8438zm381.38 0h25.836c3.3061 0 5.9648 4.3904 5.9648 9.8438v5.6582c0 5.4533-2.6588 9.8438-5.9648 9.8438h-25.836c-3.3061 0-5.9688-4.3904-5.9688-9.8438v-5.6582c0-5.4533 2.6628-9.8438 5.9688-9.8438z" fill="#c01c28"/>
 <path d="m215.07 163.8a73.51 75.963 0 0 0-73.51 75.963 73.51 75.963 0 0 0 0.84568 11.002c-16.659 9.0415-27.919 26.673-27.919 47.031 0 29.631 23.855 53.486 53.486 53.486h176.07c29.631 0 53.486-23.855 53.486-53.486 0-28.817-22.562-52.164-51.056-53.426a57.194 59.103 0 0 0-57.149-57.814 57.194 59.103 0 0 0-18.881 3.3827 73.51 75.963 0 0 0-55.372-26.14zm11.339 36.767h53.57c5.2183 5.3e-4 9.4486 4.2307 9.449 9.449v53.471h28.066c8.7142 4e-3 12.778 10.798 6.2304 16.549l-64.296 56.434c-3.5664 3.1306-8.9021 3.1306-12.468 0l-64.292-56.434c-6.5505-5.7527-2.4819-16.55 6.2361-16.549h28.058v-53.471c5.3e-4 -5.2179 4.2311-9.4486 9.449-9.449z" fill="#fff"/>
</svg>
