<?xml version="1.0" encoding="UTF-8" standalone="no"?>
<svg
   xmlns:dc="http://purl.org/dc/elements/1.1/"
   xmlns:cc="http://creativecommons.org/ns#"
   xmlns:rdf="http://www.w3.org/1999/02/22-rdf-syntax-ns#"
   xmlns:svg="http://www.w3.org/2000/svg"
   xmlns="http://www.w3.org/2000/svg"
   xmlns:sodipodi="http://sodipodi.sourceforge.net/DTD/sodipodi-0.dtd"
   xmlns:inkscape="http://www.inkscape.org/namespaces/inkscape"
   inkscape:version="1.0 (4035a4fb49, 2020-05-01)"
   sodipodi:docname="com.github.unrud.VideoDownloader2.svg"
   id="svg10"
   viewBox="0 0 135.47 135.47"
   version="1.1"
   height="512"
   width="512">
  <metadata
     id="metadata16">
    <rdf:RDF>
      <cc:Work
         rdf:about="">
        <dc:format>image/svg+xml</dc:format>
        <dc:type
           rdf:resource="http://purl.org/dc/dcmitype/StillImage" />
        <dc:title></dc:title>
      </cc:Work>
    </rdf:RDF>
  </metadata>
  <defs
     id="defs14" />
  <sodipodi:namedview
     inkscape:current-layer="svg10"
     inkscape:window-maximized="1"
     inkscape:window-y="0"
     inkscape:window-x="0"
     inkscape:cy="-764.77255"
     inkscape:cx="-1136.7087"
     inkscape:zoom="0.2"
     showgrid="false"
     id="namedview12"
     inkscape:window-height="1376"
     inkscape:window-width="2560"
     inkscape:pageshadow="2"
     inkscape:pageopacity="0"
     guidetolerance="10"
     gridtolerance="10"
     objecttolerance="10"
     borderopacity="1"
     bordercolor="#666666"
     pagecolor="#ffffff" />
  <g
     id="g8"
     transform="translate(0,-161.53)">
    <path
       style="fill:#c01c28"
       id="path2"
       stroke-width=".26458"
       fill="#303030"
       d="m5.888 187.58v83.372h6.3896v-0.72035c0-1.4429 0.70447-2.6045 1.5792-2.6045h6.8357c0.87476 0 0.72444 1.4416 1.5787 2.6045v0.72035h90.918v-0.72035c0-1.4429 0.70447-2.6045 1.5792-2.6045h6.8357c0.87475 0 1.5787 1.1616 1.5787 2.6045v0.72035h6.3944v-83.372h-6.3944v0.80459c0 1.4429-0.70395 2.6045-1.5787 2.6045h-6.8357c-0.87475 0-1.5792-1.1616-1.5792-2.6045v-0.80459h-90.918v0.80459c0 1.4429-0.70394 2.6045-1.5787 2.6045h-6.8357c-0.87475 0-1.5792-1.1616-1.5792-2.6045v-0.80459zm7.9689 13.372h6.8357c0.87476 0 1.5787 1.1616 1.5787 2.6045v1.497c0 1.4429-0.70394 2.6045-1.5787 2.6045h-6.8357c-0.87475 0-1.5792-1.1616-1.5792-2.6045v-1.497c0-1.4429 0.70447-2.6045 1.5792-2.6045zm100.91 0h6.8357c0.87475 0 1.5787 1.1616 1.5787 2.6045v1.497c0 1.4429-0.70395 2.6045-1.5787 2.6045h-6.8357c-0.87475 0-1.5792-1.1616-1.5792-2.6045v-1.497c0-1.4429 0.70447-2.6045 1.5792-2.6045zm-100.91 16.669h6.8357c0.87476 0 1.5787 1.1616 1.5787 2.6045v1.497c0 1.4429-0.70394 2.6045-1.5787 2.6045h-6.8357c-0.87475 0-1.5792-1.1616-1.5792-2.6045v-1.497c0-1.4429 0.70447-2.6045 1.5792-2.6045zm100.91 0h6.8357c0.87475 0 1.5787 1.1616 1.5787 2.6045v1.497c0 1.4429-0.70395 2.6045-1.5787 2.6045h-6.8357c-0.87475 0-1.5792-1.1616-1.5792-2.6045v-1.497c0-1.4429 0.70447-2.6045 1.5792-2.6045zm-100.91 16.669h6.8357c0.87476 0 1.5787 1.1616 1.5787 2.6045v1.497c0 1.4429-0.70394 2.6045-1.5787 2.6045h-6.8357c-0.87475 0-1.5792-1.1616-1.5792-2.6045v-1.497c0-1.4429 0.70447-2.6045 1.5792-2.6045zm100.91 0h6.8357c0.87475 0 1.5787 1.1616 1.5787 2.6045v1.497c0 1.4429-0.70395 2.6045-1.5787 2.6045h-6.8357c-0.87475 0-1.5792-1.1616-1.5792-2.6045v-1.497c0-1.4429 0.70447-2.6045 1.5792-2.6045zm-100.91 16.669h6.8357c0.87476 0 1.5787 1.1616 1.5787 2.6045v1.497c0 1.4429-0.70394 2.6045-1.5787 2.6045h-6.8357c-0.87475 0-1.5792-1.1616-1.5792-2.6045v-1.497c0-1.4429 0.70447-2.6045 1.5792-2.6045zm100.91 0h6.8357c0.87475 0 1.5787 1.1616 1.5787 2.6045v1.497c0 1.4429-0.70395 2.6045-1.5787 2.6045h-6.8357c-0.87475 0-1.5792-1.1616-1.5792-2.6045v-1.497c0-1.4429 0.70447-2.6045 1.5792-2.6045z" />
    <path
       style="fill:#ffffff"
       id="path6"
       fill="#e2e2e2"
       d="m56.902 204.87a19.45 20.099 0 0 0-19.45 20.099 19.45 20.099 0 0 0 0.22376 2.9109c-4.4077 2.3923-7.3871 7.0574-7.3871 12.444 0 7.8402 6.3119 14.152 14.152 14.152h46.586c7.8402 0 14.152-6.3119 14.152-14.152 0-7.6247-5.9698-13.802-13.509-14.136a15.133 15.638 0 0 0-15.121-15.297 15.133 15.638 0 0 0-4.9956 0.89503 19.45 20.099 0 0 0-14.651-6.9164zm3.0003 9.7281h14.174c1.3807 1.4e-4 2.5 1.1194 2.5001 2.5001v14.148h7.4259c2.3057 1e-3 3.381 2.8571 1.6485 4.3786l-17.012 14.932c-0.94362 0.82832-2.3554 0.82832-3.299 0l-17.011-14.932c-1.7332-1.5221-0.65668-4.3791 1.65-4.3786h7.4238v-14.148c1.4e-4 -1.3806 1.1195-2.5 2.5001-2.5001z" />
  </g>
</svg>
