<?xml version="1.0" encoding="UTF-8"?>
<svg width="16" height="16" version="1.1" viewBox="0 0 4.2333 4.2333" xmlns="http://www.w3.org/2000/svg">
 <path d="m1.5513 0.46972c-0.63257 1.905e-4 -1.1452 0.5131-1.1451 1.1457-5.027e-5 0.075652 0.007408 0.15112 0.022225 0.22531-0.25565 0.15138-0.4284 0.4269-0.4284 0.74673 0 0.4824 0.38835 0.87075 0.87075 0.87075h2.4918c0.4824 0 0.87075-0.38835 0.87075-0.87075 0-0.41888-0.29332-0.76622-0.68626-0.8506 7.938e-4 -0.015319 0.00106-0.030655 0.00106-0.045992-2.213e-4 -0.52325-0.4245-0.9473-0.94775-0.94723-0.089337-1.084e-4 -0.17824 0.012409-0.26406 0.037206-0.2125-0.19987-0.49324-0.31113-0.78497-0.31109zm0.1634 0.57878h0.8015c0.078047 1.06e-5 0.14107 0.06585 0.14108 0.14676v0.82889h0.42013c0.13033 5.56e-5 0.19095 0.16767 0.093017 0.25683l-0.9617 0.87488c-0.05334 0.048543-0.13322 0.048543-0.18655 0l-0.9617-0.87488c-0.097972-0.089194-0.036862-0.25685 0.093533-0.25683h0.41961v-0.82889c1.05e-5 -0.080902 0.063032-0.14675 0.14108-0.14676z"/>
</svg>
