<?xml version="1.0" encoding="UTF-8"?>
<svg width="512" height="512" version="1.1" xmlns="http://www.w3.org/2000/svg">
 <path d="m22.264 98.449v315.1h16.176v-4.2402c0-8.1801 3.9941-14.766 8.9531-14.766h38.754c4.9592 0 8.9512 6.5855 8.9512 14.766v4.2402h321.81v-4.2402c0-8.1801 3.9901-14.766 8.9492-14.766h38.754c4.959 0 8.9531 6.5855 8.9531 14.766v4.2402h16.178v-315.1h-16.178v4.2656c0 8.1801-3.994 14.764-8.9531 14.764h-38.754c-4.9592 0-8.9492-6.5836-8.9492-14.764v-4.2656h-321.81v4.2656c0 8.1801-3.992 14.764-8.9512 14.764h-38.754c-4.9592 0-8.9531-6.5836-8.9531-14.764v-4.2656h-16.176zm25.129 59.783h38.754c4.9592 0 8.9512 6.5855 8.9512 14.766v8.4863c0 8.1801-3.992 14.766-8.9512 14.766h-38.754c-4.9592 0-8.9531-6.5855-8.9531-14.766v-8.4863c0-8.1801 3.9941-14.766 8.9531-14.766zm378.46 0h38.754c4.959 0 8.9531 6.5855 8.9531 14.766v8.4863c0 8.1801-3.994 14.766-8.9531 14.766h-38.754c-4.9592 0-8.9492-6.5855-8.9492-14.766v-8.4863c0-8.1801 3.9901-14.766 8.9492-14.766zm-378.46 78.771h38.754c4.9592 0 8.9512 6.5855 8.9512 14.766v8.4863c0 8.1801-3.992 14.766-8.9512 14.766h-38.754c-4.9592 0-8.9531-6.5855-8.9531-14.766v-8.4863c0-8.1801 3.9941-14.766 8.9531-14.766zm378.46 0h38.754c4.959 0 8.9531 6.5855 8.9531 14.766v8.4863c0 8.1801-3.994 14.766-8.9531 14.766h-38.754c-4.9592 0-8.9492-6.5855-8.9492-14.766v-8.4863c0-8.1801 3.9901-14.766 8.9492-14.766zm-378.46 78.77h38.754c4.9592 0 8.9512 6.5855 8.9512 14.766v8.4883c0 8.1801-3.992 14.766-8.9512 14.766h-38.754c-4.9592 0-8.9531-6.5855-8.9531-14.766v-8.4883c0-8.1801 3.9941-14.766 8.9531-14.766zm378.46 0h38.754c4.959 0 8.9531 6.5855 8.9531 14.766v8.4883c0 8.1801-3.994 14.766-8.9531 14.766h-38.754c-4.9592 0-8.9492-6.5855-8.9492-14.766v-8.4883c0-8.1801 3.9901-14.766 8.9492-14.766z" fill="#c01c28"/>
 <path d="m215.07 163.8a73.51 75.963 0 0 0-73.51 75.963 73.51 75.963 0 0 0 0.84568 11.002c-16.659 9.0415-27.919 26.673-27.919 47.031 0 29.631 23.855 53.486 53.486 53.486h176.07c29.631 0 53.486-23.855 53.486-53.486 0-28.817-22.562-52.164-51.056-53.426a57.194 59.103 0 0 0-57.149-57.814 57.194 59.103 0 0 0-18.881 3.3827 73.51 75.963 0 0 0-55.372-26.14zm11.339 36.767h53.57c5.2183 5.3e-4 9.4486 4.2307 9.449 9.449v53.471h28.066c8.7142 4e-3 12.778 10.798 6.2304 16.549l-64.296 56.434c-3.5664 3.1306-8.9021 3.1306-12.468 0l-64.292-56.434c-6.5505-5.7527-2.4819-16.55 6.2361-16.549h28.058v-53.471c5.3e-4 -5.2179 4.2311-9.4486 9.449-9.449z" fill="#fff"/>
</svg>
